<svg width="32" height="32" viewBox="0 0 32 32" fill="none" xmlns="http://www.w3.org/2000/svg">
<rect width="32" height="32" rx="16" fill="#5546FF"/>
<path d="M9.76425 8.64001H11.617C11.8255 8.64001 11.9709 8.84612 11.9006 9.04189L10.8658 11.9244L12.9559 9.77727C13.0952 9.63419 13.333 9.66365 13.433 9.83637L14.3593 11.4369C14.4636 11.617 14.3574 11.8457 14.1523 11.8829L11.257 12.4076L14.1523 12.9322C14.3574 12.9694 14.4636 13.1981 14.3593 13.3782L13.433 14.9788C13.333 15.1515 13.0952 15.181 12.9559 15.0379L10.8013 12.8245L11.6456 15.7925C11.7001 15.9844 11.5557 16.1751 11.3557 16.1751H9.50297C9.29451 16.1751 9.14904 15.969 9.21932 15.7733L10.2542 12.8907L8.16402 15.0379C8.02473 15.181 7.78692 15.1515 7.68695 14.9788L6.76058 13.3782C6.65634 13.1981 6.76255 12.9694 6.96766 12.9322L9.86301 12.4076L6.96766 11.8829C6.76255 11.8457 6.65634 11.617 6.76058 11.4369L7.68695 9.83637C7.78692 9.66365 8.02473 9.63419 8.16402 9.77727L10.3187 11.9906L9.4744 9.0226C9.41982 8.83073 9.5643 8.64001 9.76425 8.64001Z" fill="black"/>
<path d="M20.6442 8.64001H22.497C22.7055 8.64001 22.8509 8.84612 22.7807 9.04189L21.7458 11.9244L23.836 9.77727C23.9752 9.63419 24.213 9.66365 24.313 9.83637L25.2394 11.4369C25.3436 11.617 25.2374 11.8457 25.0323 11.8829L22.137 12.4076L25.0323 12.9322C25.2374 12.9694 25.3436 13.1981 25.2394 13.3782L24.313 14.9788C24.213 15.1515 23.9752 15.181 23.836 15.0379L21.6813 12.8245L22.5256 15.7925C22.5802 15.9844 22.4357 16.1751 22.2357 16.1751H20.383C20.1745 16.1751 20.029 15.969 20.0993 15.7733L21.1342 12.8907L19.044 15.0379C18.9047 15.181 18.6669 15.1515 18.567 14.9788L17.6406 13.3782C17.5363 13.1981 17.6426 12.9694 17.8477 12.9322L20.743 12.4076L17.8477 11.8829C17.6426 11.8457 17.5363 11.617 17.6406 11.4369L18.567 9.83637C18.6669 9.66365 18.9047 9.63419 19.044 9.77727L21.1987 11.9906L20.3544 9.0226C20.2998 8.83073 20.4443 8.64001 20.6442 8.64001Z" fill="black"/>
<rect x="13.4399" y="16.32" width="4.8" height="7.36" rx="2.4" fill="black"/>
</svg>
